<?xml version="1.0"?>
<svg xmlns="http://www.w3.org/2000/svg" xmlns:xlink="http://www.w3.org/1999/xlink" version="1.1" id="Capa_1" x="0px" y="0px" width="512px" height="512px" viewBox="0 0 106.048 106.048" style="enable-background:new 0 0 106.048 106.048;" xml:space="preserve" class=""><g><g>
	<path d="M51.025,44.014h3.997v8.008h-3.997V44.014z M51.025,68.029h3.997v-8.005h-3.997V68.029z    M51.025,84.051h3.997v-8.01h-3.997V84.051z M106.048,21.209v63.629c0,11.666-9.543,21.21-21.21,21.21H21.209   C9.543,106.048,0,96.504,0,84.838V21.209C0,9.543,9.543,0,21.209,0h63.628C96.505,0,106.048,9.543,106.048,21.209z M83.947,86.34   L63.939,40.006H42.106L22.1,86.34H83.947z M92.792,19.708H13.256v33.823h15.705c-0.052-0.66-0.101-1.323-0.101-1.999   c0-13.207,10.716-23.923,23.92-23.923c13.21,0,23.923,10.716,23.923,23.923c0,0.676-0.046,1.339-0.108,1.999h16.197V19.708z" data-original="#010002" class="active-path" data-old_color="#4cae4c" fill="#4cae4c"/>
</g></g> </svg>
